<svg width="76" height="34" viewBox="0 0 76 34" fill="none" xmlns="http://www.w3.org/2000/svg">
<path d="M27.2461 4.07641C29.0329 2.28959 31.9299 2.28959 33.7167 4.0764V4.0764C35.5035 5.86321 35.5035 8.76021 33.7167 10.547L24.9146 19.3491L18.4439 12.8785L27.2461 4.07641Z" fill="#FFAE71"/>
<path d="M9.657 21.779C7.87919 23.5568 4.99679 23.5568 3.21898 21.779V21.779C1.44117 20.0011 1.44117 17.1187 3.21898 15.3409L12.0374 6.52251L18.4754 12.9605L9.657 21.779Z" fill="#6EC4EA"/>
<path d="M24.8823 6.42712C24.0302 5.58312 23.0202 4.9152 21.91 4.46152C20.7998 4.00784 19.6111 3.77726 18.4118 3.78297C17.2125 3.78867 16.0261 4.03054 14.9203 4.49477C13.8144 4.95899 12.8109 5.63648 11.9668 6.48855C11.1228 7.34062 10.4549 8.35059 10.0012 9.46079C9.54756 10.571 9.31699 11.7597 9.3227 12.959C9.3284 14.1583 9.57027 15.3447 10.0345 16.4506C10.4987 17.5564 11.1762 18.56 12.0283 19.404L18.4553 12.9155L24.8823 6.42712Z" fill="#3AACEE"/>
<path d="M12.0283 19.404C13.7491 21.1085 16.0766 22.0596 18.4987 22.0481C20.9208 22.0366 23.2391 21.0634 24.9437 19.3425C26.6482 17.6217 27.5994 15.2942 27.5878 12.8721C27.5763 10.45 26.6031 8.13167 24.8823 6.42712L18.4553 12.9155L12.0283 19.404Z" fill="#F17C1D"/>
<path d="M24.532 20.3897C24.0561 20.3897 23.6302 20.277 23.2545 20.0516C22.8872 19.8178 22.645 19.513 22.5281 19.1373L22.6659 18.6238V19.2375C22.6659 19.6049 22.5699 19.8846 22.3778 20.0766C22.1942 20.2687 21.927 20.3647 21.5763 20.3647C21.2173 20.3647 20.9418 20.2687 20.7497 20.0766C20.566 19.8846 20.4742 19.6049 20.4742 19.2375V12.437C20.4742 12.0696 20.5702 11.7899 20.7622 11.5978C20.9543 11.4058 21.2256 11.3098 21.5763 11.3098C21.9353 11.3098 22.2109 11.4058 22.4029 11.5978C22.6033 11.7899 22.7035 12.0696 22.7035 12.437V15.1171H22.5532C22.6784 14.7748 22.9247 14.4951 23.2921 14.278C23.6595 14.0609 24.0728 13.9524 24.532 13.9524C25.0663 13.9524 25.5339 14.0818 25.9347 14.3406C26.3438 14.5994 26.6611 14.9668 26.8865 15.4427C27.1119 15.9186 27.2246 16.4947 27.2246 17.171C27.2246 17.8306 27.1119 18.4026 26.8865 18.8868C26.6611 19.3711 26.3438 19.7426 25.9347 20.0015C25.5339 20.2603 25.0663 20.3897 24.532 20.3897ZM23.8306 18.7491C24.0561 18.7491 24.2523 18.6948 24.4193 18.5863C24.5946 18.4694 24.7324 18.2982 24.8326 18.0728C24.9327 17.839 24.9828 17.5384 24.9828 17.171C24.9828 16.6116 24.8743 16.2109 24.6572 15.9687C24.4401 15.7183 24.1646 15.593 23.8306 15.593C23.6052 15.593 23.4048 15.6473 23.2295 15.7558C23.0541 15.8644 22.9164 16.0355 22.8162 16.2693C22.716 16.4947 22.6659 16.7953 22.6659 17.171C22.6659 17.7221 22.7744 18.1229 22.9915 18.3733C23.2086 18.6238 23.4883 18.7491 23.8306 18.7491ZM31.6346 20.3897C31.1587 20.3897 30.737 20.302 30.3696 20.1267C30.0106 19.9514 29.7267 19.7134 29.518 19.4128C29.3176 19.1039 29.2174 18.7532 29.2174 18.3608C29.2174 17.91 29.3343 17.5551 29.5681 17.2963C29.8019 17.0375 30.1776 16.8538 30.6953 16.7452C31.2129 16.6283 31.9017 16.5699 32.7617 16.5699H33.4506V17.6219H32.7617C32.4361 17.6219 32.1648 17.647 31.9477 17.6971C31.7389 17.7388 31.5845 17.8098 31.4843 17.91C31.3841 18.0018 31.334 18.1229 31.334 18.2732C31.334 18.4652 31.4008 18.6238 31.5344 18.7491C31.6763 18.8743 31.8767 18.9369 32.1355 18.9369C32.3443 18.9369 32.5279 18.891 32.6866 18.7992C32.8536 18.7073 32.9872 18.5821 33.0874 18.4234C33.1875 18.2565 33.2376 18.0644 33.2376 17.8473V16.3946C33.2376 16.094 33.1583 15.8811 32.9997 15.7558C32.8494 15.6306 32.5864 15.568 32.2107 15.568C32.0103 15.568 31.7849 15.593 31.5344 15.6431C31.2839 15.6849 31.0042 15.7642 30.6953 15.8811C30.4698 15.9646 30.2778 15.9771 30.1192 15.9186C29.9605 15.8602 29.8353 15.76 29.7434 15.6181C29.6599 15.4761 29.6182 15.3217 29.6182 15.1547C29.6265 14.9877 29.6808 14.829 29.781 14.6788C29.8896 14.5285 30.0524 14.4116 30.2694 14.3281C30.6702 14.1778 31.0376 14.0776 31.3716 14.0275C31.7139 13.9774 32.027 13.9524 32.3109 13.9524C32.9955 13.9524 33.5591 14.0526 34.0016 14.2529C34.4525 14.445 34.7864 14.7456 35.0035 15.1547C35.229 15.5554 35.3417 16.0731 35.3417 16.7077V19.2375C35.3417 19.6049 35.254 19.8846 35.0787 20.0766C34.9033 20.2687 34.6487 20.3647 34.3147 20.3647C33.9724 20.3647 33.7094 20.2687 33.5257 20.0766C33.3504 19.8846 33.2627 19.6049 33.2627 19.2375V18.9119L33.3378 19.0872C33.2961 19.3544 33.2001 19.584 33.0498 19.776C32.8995 19.9681 32.7033 20.1184 32.4612 20.2269C32.219 20.3354 31.9435 20.3897 31.6346 20.3897ZM38.9907 20.3647C38.64 20.3647 38.3686 20.2687 38.1766 20.0766C37.9846 19.8846 37.8886 19.6049 37.8886 19.2375V15.0921C37.8886 14.733 37.9804 14.4575 38.1641 14.2655C38.3561 14.0734 38.6275 13.9774 38.9782 13.9774C39.3288 13.9774 39.596 14.0734 39.7797 14.2655C39.9634 14.4575 40.0552 14.733 40.0552 15.0921V15.7809L39.9175 15.1672C40.0928 14.7998 40.3516 14.5076 40.6939 14.2905C41.0446 14.0651 41.4579 13.9524 41.9338 13.9524C42.3847 13.9524 42.7688 14.0609 43.086 14.278C43.4117 14.4951 43.6454 14.8249 43.7874 15.2674H43.612C43.8041 14.8583 44.0921 14.5368 44.4762 14.303C44.8603 14.0693 45.2861 13.9524 45.7537 13.9524C46.2379 13.9524 46.6345 14.0484 46.9434 14.2404C47.2524 14.4241 47.482 14.7163 47.6323 15.1171C47.7909 15.5095 47.8702 16.0063 47.8702 16.6075V19.2375C47.8702 19.6049 47.77 19.8846 47.5696 20.0766C47.3776 20.2687 47.1021 20.3647 46.7431 20.3647C46.3924 20.3647 46.121 20.2687 45.929 20.0766C45.737 19.8846 45.6409 19.6049 45.6409 19.2375V16.6701C45.6409 16.3111 45.5867 16.0522 45.4781 15.8936C45.3696 15.735 45.1901 15.6556 44.9396 15.6556C44.6307 15.6556 44.3927 15.7642 44.2257 15.9813C44.0671 16.1983 43.9878 16.5073 43.9878 16.908V19.2375C43.9878 19.6049 43.8917 19.8846 43.6997 20.0766C43.5077 20.2687 43.2321 20.3647 42.8731 20.3647C42.5141 20.3647 42.2386 20.2687 42.0465 20.0766C41.8545 19.8846 41.7585 19.6049 41.7585 19.2375V16.6701C41.7585 16.3111 41.7042 16.0522 41.5957 15.8936C41.4871 15.735 41.3076 15.6556 41.0571 15.6556C40.7566 15.6556 40.5228 15.7642 40.3558 15.9813C40.1972 16.1983 40.1178 16.5073 40.1178 16.908V19.2375C40.1178 19.9889 39.7421 20.3647 38.9907 20.3647ZM54.4747 20.3897C53.9988 20.3897 53.573 20.277 53.1972 20.0516C52.8299 19.8178 52.5877 19.513 52.4708 19.1373L52.6086 18.6238V19.2375C52.6086 19.6049 52.5126 19.8846 52.3206 20.0766C52.1369 20.2687 51.8697 20.3647 51.519 20.3647C51.16 20.3647 50.8845 20.2687 50.6924 20.0766C50.5087 19.8846 50.4169 19.6049 50.4169 19.2375V12.437C50.4169 12.0696 50.5129 11.7899 50.705 11.5978C50.897 11.4058 51.1683 11.3098 51.519 11.3098C51.878 11.3098 52.1536 11.4058 52.3456 11.5978C52.546 11.7899 52.6462 12.0696 52.6462 12.437V15.1171H52.4959C52.6211 14.7748 52.8674 14.4951 53.2348 14.278C53.6022 14.0609 54.0155 13.9524 54.4747 13.9524C55.009 13.9524 55.4766 14.0818 55.8774 14.3406C56.2865 14.5994 56.6038 14.9668 56.8292 15.4427C57.0546 15.9186 57.1674 16.4947 57.1674 17.171C57.1674 17.8306 57.0546 18.4026 56.8292 18.8868C56.6038 19.3711 56.2865 19.7426 55.8774 20.0015C55.4766 20.2603 55.009 20.3897 54.4747 20.3897ZM53.7733 18.7491C53.9988 18.7491 54.195 18.6948 54.362 18.5863C54.5373 18.4694 54.6751 18.2982 54.7753 18.0728C54.8755 17.839 54.9255 17.5384 54.9255 17.171C54.9255 16.6116 54.817 16.2109 54.5999 15.9687C54.3828 15.7183 54.1073 15.593 53.7733 15.593C53.5479 15.593 53.3475 15.6473 53.1722 15.7558C52.9968 15.8644 52.8591 16.0355 52.7589 16.2693C52.6587 16.4947 52.6086 16.7953 52.6086 17.171C52.6086 17.7221 52.7171 18.1229 52.9342 18.3733C53.1513 18.6238 53.431 18.7491 53.7733 18.7491ZM62.5542 20.3897C61.8695 20.3897 61.2725 20.2603 60.7632 20.0015C60.2539 19.7426 59.8573 19.3711 59.5734 18.8868C59.2896 18.4026 59.1476 17.8306 59.1476 17.171C59.1476 16.6701 59.2269 16.2234 59.3856 15.831C59.5442 15.4302 59.7738 15.0921 60.0744 14.8165C60.375 14.5326 60.734 14.3197 61.1515 14.1778C61.5689 14.0275 62.0365 13.9524 62.5542 13.9524C63.2388 13.9524 63.8358 14.0818 64.3451 14.3406C64.8544 14.5994 65.2468 14.971 65.5224 15.4552C65.8062 15.9312 65.9482 16.5031 65.9482 17.171C65.9482 17.6637 65.8688 18.1103 65.7102 18.5111C65.5516 18.9119 65.322 19.2542 65.0214 19.5381C64.7292 19.8136 64.3701 20.0265 63.9443 20.1768C63.5269 20.3187 63.0635 20.3897 62.5542 20.3897ZM62.5542 18.7491C62.7796 18.7491 62.98 18.6948 63.1553 18.5863C63.3306 18.4694 63.4642 18.2982 63.5561 18.0728C63.6563 17.839 63.7064 17.5384 63.7064 17.171C63.7064 16.6116 63.5978 16.2109 63.3807 15.9687C63.1637 15.7183 62.8881 15.593 62.5542 15.593C62.3287 15.593 62.1283 15.6473 61.953 15.7558C61.7777 15.8644 61.6399 16.0355 61.5397 16.2693C61.4395 16.4947 61.3894 16.7953 61.3894 17.171C61.3894 17.7221 61.498 18.1229 61.715 18.3733C61.9321 18.6238 62.2118 18.7491 62.5542 18.7491ZM71.3405 20.3897C70.6559 20.3897 70.0589 20.2603 69.5496 20.0015C69.0403 19.7426 68.6437 19.3711 68.3598 18.8868C68.0759 18.4026 67.934 17.8306 67.934 17.171C67.934 16.6701 68.0133 16.2234 68.172 15.831C68.3306 15.4302 68.5602 15.0921 68.8608 14.8165C69.1614 14.5326 69.5204 14.3197 69.9379 14.1778C70.3553 14.0275 70.8229 13.9524 71.3405 13.9524C72.0252 13.9524 72.6222 14.0818 73.1315 14.3406C73.6408 14.5994 74.0332 14.971 74.3087 15.4552C74.5926 15.9312 74.7346 16.5031 74.7346 17.171C74.7346 17.6637 74.6552 18.1103 74.4966 18.5111C74.338 18.9119 74.1084 19.2542 73.8078 19.5381C73.5156 19.8136 73.1565 20.0265 72.7307 20.1768C72.3132 20.3187 71.8499 20.3897 71.3405 20.3897ZM71.3405 18.7491C71.566 18.7491 71.7664 18.6948 71.9417 18.5863C72.117 18.4694 72.2506 18.2982 72.3425 18.0728C72.4427 17.839 72.4928 17.5384 72.4928 17.171C72.4928 16.6116 72.3842 16.2109 72.1671 15.9687C71.95 15.7183 71.6745 15.593 71.3405 15.593C71.1151 15.593 70.9147 15.6473 70.7394 15.7558C70.5641 15.8644 70.4263 16.0355 70.3261 16.2693C70.2259 16.4947 70.1758 16.7953 70.1758 17.171C70.1758 17.7221 70.2844 18.1229 70.5014 18.3733C70.7185 18.6238 70.9982 18.7491 71.3405 18.7491Z" fill="white"/>
<path d="M21.7118 31.155C21.3243 31.155 21.0249 31.0537 20.8136 30.8512C20.6111 30.6486 20.5098 30.3536 20.5098 29.9662V25.594C20.5098 25.2154 20.6066 24.9248 20.8004 24.7222C21.0029 24.5197 21.2891 24.4184 21.659 24.4184C22.0288 24.4184 22.3106 24.5197 22.5043 24.7222C22.6981 24.9248 22.7949 25.2154 22.7949 25.594V26.1356H22.6628C22.7509 25.6072 22.9755 25.1889 23.3365 24.8807C23.7063 24.5725 24.1643 24.4096 24.7102 24.392C24.9656 24.3832 25.1549 24.4492 25.2782 24.5901C25.4103 24.7222 25.4807 24.9732 25.4896 25.343C25.4896 25.6601 25.4235 25.911 25.2914 26.096C25.1593 26.2809 24.9084 26.391 24.5385 26.4262L24.2347 26.4526C23.768 26.4966 23.429 26.6287 23.2176 26.8489C23.0063 27.0602 22.9006 27.3772 22.9006 27.7999V29.9662C22.9006 30.3536 22.7993 30.6486 22.5968 30.8512C22.3943 31.0537 22.0993 31.155 21.7118 31.155ZM30.9819 31.1814C30.1894 31.1814 29.5025 31.0449 28.9213 30.7719C28.3489 30.4901 27.9086 30.0939 27.6004 29.5831C27.2922 29.0724 27.1381 28.4692 27.1381 27.7735C27.1381 27.1042 27.2834 26.5186 27.574 26.0167C27.8734 25.506 28.2785 25.1097 28.7892 24.8279C29.3088 24.5373 29.8988 24.392 30.5592 24.392C31.0435 24.392 31.4838 24.4713 31.8801 24.6298C32.2764 24.7795 32.6154 25.004 32.8972 25.3034C33.179 25.594 33.3903 25.9463 33.5312 26.3601C33.6809 26.774 33.7558 27.2363 33.7558 27.7471C33.7558 27.9232 33.7073 28.0553 33.6105 28.1433C33.5136 28.2226 33.3595 28.2622 33.1482 28.2622H29.1062V27.1527H32.0386L31.8273 27.3244C31.8273 26.9986 31.7832 26.7344 31.6952 26.5319C31.6071 26.3293 31.475 26.1752 31.2989 26.0695C31.1316 25.9639 30.9203 25.911 30.6649 25.911C30.3919 25.911 30.1541 25.9771 29.9516 26.1092C29.7579 26.2324 29.6082 26.4174 29.5025 26.6639C29.3968 26.9105 29.344 27.2187 29.344 27.5886V27.7074C29.344 28.3327 29.4805 28.7818 29.7535 29.0548C30.0353 29.3189 30.4667 29.451 31.0479 29.451C31.2417 29.451 31.4618 29.429 31.7084 29.385C31.9638 29.3321 32.2059 29.2617 32.4349 29.1736C32.6638 29.0856 32.862 29.0724 33.0293 29.134C33.1966 29.1868 33.3243 29.2837 33.4123 29.4246C33.5092 29.5567 33.562 29.7108 33.5708 29.8869C33.5797 30.0542 33.54 30.2215 33.452 30.3889C33.3639 30.5474 33.2186 30.6707 33.0161 30.7587C32.7079 30.8996 32.3776 31.0053 32.0254 31.0757C31.682 31.1462 31.3341 31.1814 30.9819 31.1814ZM37.252 33.5326C36.8822 33.5326 36.596 33.4313 36.3934 33.2288C36.1909 33.0262 36.0896 32.7312 36.0896 32.3438V25.594C36.0896 25.2154 36.1865 24.9248 36.3802 24.7222C36.5828 24.5197 36.869 24.4184 37.2388 24.4184C37.6175 24.4184 37.9037 24.5197 38.0974 24.7222C38.2999 24.9248 38.4012 25.2154 38.4012 25.594V26.3601L38.2559 25.7129C38.3792 25.3166 38.6345 24.9996 39.022 24.7619C39.4183 24.5153 39.8674 24.392 40.3693 24.392C40.9329 24.392 41.426 24.5285 41.8487 24.8015C42.2802 25.0745 42.6148 25.4619 42.8526 25.9639C43.0904 26.4658 43.2092 27.0734 43.2092 27.7867C43.2092 28.4824 43.0904 29.0856 42.8526 29.5963C42.6148 30.1071 42.2802 30.4989 41.8487 30.7719C41.426 31.0449 40.9329 31.1814 40.3693 31.1814C39.885 31.1814 39.4491 31.0669 39.0616 30.838C38.6742 30.609 38.4144 30.3096 38.2823 29.9398H38.4408V32.3438C38.4408 32.7312 38.3351 33.0262 38.1238 33.2288C37.9213 33.4313 37.6307 33.5326 37.252 33.5326ZM39.6296 29.451C39.8674 29.451 40.0743 29.3938 40.2504 29.2793C40.4354 29.156 40.5807 28.9755 40.6863 28.7377C40.792 28.4912 40.8448 28.1742 40.8448 27.7867C40.8448 27.1967 40.7304 26.774 40.5014 26.5186C40.2725 26.2545 39.9819 26.1224 39.6296 26.1224C39.3919 26.1224 39.1805 26.1796 38.9956 26.2941C38.8107 26.4086 38.6654 26.5891 38.5597 26.8357C38.454 27.0734 38.4012 27.3904 38.4012 27.7867C38.4012 28.3679 38.5157 28.7906 38.7446 29.0548C38.9736 29.3189 39.2686 29.451 39.6296 29.451ZM48.8906 31.1814C48.1686 31.1814 47.5389 31.0449 47.0018 30.7719C46.4646 30.4989 46.0463 30.1071 45.7469 29.5963C45.4475 29.0856 45.2978 28.4824 45.2978 27.7867C45.2978 27.2583 45.3815 26.7872 45.5488 26.3733C45.7161 25.9507 45.9583 25.594 46.2753 25.3034C46.5923 25.004 46.9709 24.7795 47.4112 24.6298C47.8515 24.4713 48.3447 24.392 48.8906 24.392C49.6127 24.392 50.2424 24.5285 50.7795 24.8015C51.3167 25.0745 51.7306 25.4663 52.0212 25.9771C52.3206 26.479 52.4703 27.0822 52.4703 27.7867C52.4703 28.3063 52.3866 28.7774 52.2193 29.2001C52.052 29.6227 51.8098 29.9838 51.4928 30.2832C51.1846 30.5738 50.8059 30.7983 50.3568 30.9568C49.9165 31.1065 49.4278 31.1814 48.8906 31.1814ZM48.8906 29.451C49.1284 29.451 49.3397 29.3938 49.5247 29.2793C49.7096 29.156 49.8505 28.9755 49.9474 28.7377C50.053 28.4912 50.1059 28.1742 50.1059 27.7867C50.1059 27.1967 49.9914 26.774 49.7624 26.5186C49.5335 26.2545 49.2429 26.1224 48.8906 26.1224C48.6529 26.1224 48.4415 26.1796 48.2566 26.2941C48.0717 26.4086 47.9264 26.5891 47.8207 26.8357C47.715 27.0734 47.6622 27.3904 47.6622 27.7867C47.6622 28.3679 47.7767 28.7906 48.0056 29.0548C48.2346 29.3189 48.5296 29.451 48.8906 29.451ZM56.0705 31.155C55.6831 31.155 55.3837 31.0537 55.1723 30.8512C54.9698 30.6486 54.8685 30.3536 54.8685 29.9662V25.594C54.8685 25.2154 54.9654 24.9248 55.1591 24.7222C55.3616 24.5197 55.6478 24.4184 56.0177 24.4184C56.3875 24.4184 56.6693 24.5197 56.8631 24.7222C57.0568 24.9248 57.1537 25.2154 57.1537 25.594V26.1356H57.0216C57.1096 25.6072 57.3342 25.1889 57.6952 24.8807C58.0651 24.5725 58.523 24.4096 59.069 24.392C59.3243 24.3832 59.5137 24.4492 59.6369 24.5901C59.769 24.7222 59.8395 24.9732 59.8483 25.343C59.8483 25.6601 59.7822 25.911 59.6501 26.096C59.5181 26.2809 59.2671 26.391 58.8972 26.4262L58.5934 26.4526C58.1267 26.4966 57.7877 26.6287 57.5763 26.8489C57.365 27.0602 57.2593 27.3772 57.2593 27.7999V29.9662C57.2593 30.3536 57.1581 30.6486 56.9555 30.8512C56.753 31.0537 56.458 31.155 56.0705 31.155ZM65.7116 31.1814C65.0512 31.1814 64.5052 31.0801 64.0737 30.8776C63.651 30.6751 63.334 30.3713 63.1227 29.9662C62.9113 29.5523 62.8056 29.0371 62.8056 28.4207V26.2677H62.3565C62.0747 26.2677 61.8546 26.1928 61.6961 26.0431C61.5464 25.8934 61.4715 25.6777 61.4715 25.3959C61.4715 25.1141 61.5464 24.9027 61.6961 24.7619C61.8546 24.6122 62.0747 24.5373 62.3565 24.5373H62.8056V23.7183C62.8056 23.3309 62.9069 23.0359 63.1094 22.8333C63.312 22.6308 63.6026 22.5295 63.9812 22.5295C64.3599 22.5295 64.6505 22.6308 64.853 22.8333C65.0556 23.0359 65.1568 23.3309 65.1568 23.7183V24.5373H66.24C66.5306 24.5373 66.7507 24.6122 66.9004 24.7619C67.0589 24.9027 67.1382 25.1141 67.1382 25.3959C67.1382 25.6777 67.0589 25.8934 66.9004 26.0431C66.7507 26.1928 66.5306 26.2677 66.24 26.2677H65.1568V28.3415C65.1568 28.6673 65.2317 28.9095 65.3814 29.068C65.5399 29.2177 65.7865 29.2925 66.1211 29.2925C66.2444 29.2925 66.3632 29.2793 66.4777 29.2529C66.5922 29.2265 66.6979 29.2133 66.7947 29.2133C66.9356 29.2045 67.0501 29.2485 67.1382 29.3454C67.2262 29.4334 67.2703 29.6404 67.2703 29.9662C67.2703 30.2304 67.2306 30.4549 67.1514 30.6398C67.0721 30.816 66.9312 30.9436 66.7287 31.0229C66.6054 31.0669 66.4381 31.1021 66.2268 31.1286C66.0154 31.1638 65.8437 31.1814 65.7116 31.1814ZM71.8377 31.1814C71.4502 31.1814 71.0539 31.1506 70.6489 31.0889C70.2526 31.0361 69.8915 30.9348 69.5657 30.7851C69.3456 30.6971 69.1871 30.5782 69.0902 30.4285C69.0021 30.2788 68.9581 30.1203 68.9581 29.953C68.9669 29.7857 69.0154 29.636 69.1034 29.5039C69.2003 29.363 69.3236 29.2661 69.4733 29.2133C69.6318 29.1516 69.8079 29.156 70.0016 29.2265C70.3715 29.3586 70.7017 29.4554 70.9923 29.5171C71.2917 29.5699 71.5779 29.5963 71.8509 29.5963C72.1767 29.5963 72.4101 29.5523 72.5509 29.4642C72.6918 29.3674 72.7623 29.2441 72.7623 29.0944C72.7623 28.9623 72.7139 28.861 72.617 28.7906C72.5289 28.7201 72.4012 28.6717 72.2339 28.6453L70.7677 28.4075C70.2218 28.3107 69.7991 28.1125 69.4997 27.8131C69.2003 27.5049 69.0506 27.1042 69.0506 26.6111C69.0506 26.1532 69.1783 25.7613 69.4336 25.4355C69.6978 25.1009 70.0545 24.8455 70.5036 24.6694C70.9615 24.4845 71.4854 24.392 72.0754 24.392C72.4717 24.392 72.8327 24.4228 73.1586 24.4845C73.4844 24.5373 73.8014 24.6386 74.1096 24.7883C74.3033 24.8675 74.4398 24.982 74.5191 25.1317C74.5983 25.2814 74.6292 25.4399 74.6115 25.6072C74.5939 25.7657 74.5367 25.9154 74.4398 26.0563C74.3518 26.1884 74.2285 26.2809 74.07 26.3337C73.9115 26.3777 73.7265 26.3645 73.5152 26.2941C73.2246 26.1796 72.9648 26.096 72.7359 26.0431C72.5157 25.9903 72.3088 25.9639 72.1151 25.9639C71.754 25.9639 71.4986 26.0123 71.3489 26.1092C71.1992 26.206 71.1244 26.3293 71.1244 26.479C71.1244 26.5935 71.164 26.6904 71.2433 26.7696C71.3225 26.8401 71.4458 26.8885 71.6131 26.9149L73.0793 27.1659C73.6429 27.2539 74.0744 27.4477 74.3738 27.7471C74.682 28.0377 74.8361 28.4339 74.8361 28.9359C74.8361 29.6492 74.5631 30.2039 74.0171 30.6002C73.4712 30.9877 72.7447 31.1814 71.8377 31.1814Z" fill="white"/>
</svg>
